<mxfile host="Electron" modified="2023-05-27T15:10:49.115Z" agent="Mozilla/5.0 (Macintosh; Intel Mac OS X 10_15_7) AppleWebKit/537.36 (KHTML, like Gecko) draw.io/21.2.1 Chrome/112.0.5615.87 Electron/24.1.2 Safari/537.36" etag="ph8XvguJWj-fLNomVRJY" version="21.2.1" type="device">
  <diagram name="Page-1" id="H1nZVYqxkzLZFgEqRADx">
    <mxGraphModel dx="892" dy="1945" grid="1" gridSize="10" guides="1" tooltips="1" connect="1" arrows="1" fold="1" page="1" pageScale="1" pageWidth="850" pageHeight="1100" math="0" shadow="0">
      <root>
        <mxCell id="0" />
        <mxCell id="1" parent="0" />
        <mxCell id="AsBp8XiL8Dx4Y6rQVwFH-10409" value="R, W: 117, H: 104, ORDER: 19, GC: {41, 22, 25, 19, 3, 29, 16, 12, 8, 21, 7, 13, 63, 9, 4, 1, 6, 5, 54} " style="text;html=1;strokeColor=none;fillColor=none;align=center;verticalAlign=middle;whiteSpace=wrap;rounded=0;" parent="1" vertex="1">
          <mxGeometry x="950" y="40" width="1170" height="30" as="geometry" />
        </mxCell>
        <mxCell id="kQX5rtk-PWgS1Z2sBOy7-2" value="" style="group;flipV=1;" vertex="1" connectable="0" parent="1">
          <mxGeometry x="950" y="90" width="1170" height="1040" as="geometry" />
        </mxCell>
        <mxCell id="761dnnyQ54j-Cl0NHfQN-10410" value="41" style="rounded=0;whiteSpace=wrap;html=1;" parent="kQX5rtk-PWgS1Z2sBOy7-2" vertex="1">
          <mxGeometry y="630" width="410" height="410" as="geometry" />
        </mxCell>
        <mxCell id="761dnnyQ54j-Cl0NHfQN-10411" value="22" style="rounded=0;whiteSpace=wrap;html=1;" parent="kQX5rtk-PWgS1Z2sBOy7-2" vertex="1">
          <mxGeometry x="410" y="820" width="220" height="220" as="geometry" />
        </mxCell>
        <mxCell id="761dnnyQ54j-Cl0NHfQN-10412" value="25" style="rounded=0;whiteSpace=wrap;html=1;" parent="kQX5rtk-PWgS1Z2sBOy7-2" vertex="1">
          <mxGeometry x="630" y="790" width="250" height="250" as="geometry" />
        </mxCell>
        <mxCell id="761dnnyQ54j-Cl0NHfQN-10413" value="19" style="rounded=0;whiteSpace=wrap;html=1;" parent="kQX5rtk-PWgS1Z2sBOy7-2" vertex="1">
          <mxGeometry x="410" y="630" width="190" height="190" as="geometry" />
        </mxCell>
        <mxCell id="761dnnyQ54j-Cl0NHfQN-10414" value="3" style="rounded=0;whiteSpace=wrap;html=1;" parent="kQX5rtk-PWgS1Z2sBOy7-2" vertex="1">
          <mxGeometry x="600" y="790" width="30" height="30" as="geometry" />
        </mxCell>
        <mxCell id="761dnnyQ54j-Cl0NHfQN-10415" value="29" style="rounded=0;whiteSpace=wrap;html=1;" parent="kQX5rtk-PWgS1Z2sBOy7-2" vertex="1">
          <mxGeometry x="880" y="750" width="290" height="290" as="geometry" />
        </mxCell>
        <mxCell id="761dnnyQ54j-Cl0NHfQN-10416" value="16" style="rounded=0;whiteSpace=wrap;html=1;" parent="kQX5rtk-PWgS1Z2sBOy7-2" vertex="1">
          <mxGeometry x="600" y="630" width="160" height="160" as="geometry" />
        </mxCell>
        <mxCell id="761dnnyQ54j-Cl0NHfQN-10417" value="12" style="rounded=0;whiteSpace=wrap;html=1;" parent="kQX5rtk-PWgS1Z2sBOy7-2" vertex="1">
          <mxGeometry x="760" y="670" width="120" height="120" as="geometry" />
        </mxCell>
        <mxCell id="761dnnyQ54j-Cl0NHfQN-10418" value="8" style="rounded=0;whiteSpace=wrap;html=1;" parent="kQX5rtk-PWgS1Z2sBOy7-2" vertex="1">
          <mxGeometry x="880" y="670" width="80" height="80" as="geometry" />
        </mxCell>
        <mxCell id="761dnnyQ54j-Cl0NHfQN-10419" value="21" style="rounded=0;whiteSpace=wrap;html=1;" parent="kQX5rtk-PWgS1Z2sBOy7-2" vertex="1">
          <mxGeometry x="960" y="540" width="210" height="210" as="geometry" />
        </mxCell>
        <mxCell id="761dnnyQ54j-Cl0NHfQN-10420" value="7" style="rounded=0;whiteSpace=wrap;html=1;" parent="kQX5rtk-PWgS1Z2sBOy7-2" vertex="1">
          <mxGeometry x="760" y="600" width="70" height="70" as="geometry" />
        </mxCell>
        <mxCell id="761dnnyQ54j-Cl0NHfQN-10421" value="13" style="rounded=0;whiteSpace=wrap;html=1;" parent="kQX5rtk-PWgS1Z2sBOy7-2" vertex="1">
          <mxGeometry x="830" y="540" width="130" height="130" as="geometry" />
        </mxCell>
        <mxCell id="761dnnyQ54j-Cl0NHfQN-10422" value="63" style="rounded=0;whiteSpace=wrap;html=1;" parent="kQX5rtk-PWgS1Z2sBOy7-2" vertex="1">
          <mxGeometry width="630" height="630" as="geometry" />
        </mxCell>
        <mxCell id="761dnnyQ54j-Cl0NHfQN-10423" value="9" style="rounded=0;whiteSpace=wrap;html=1;" parent="kQX5rtk-PWgS1Z2sBOy7-2" vertex="1">
          <mxGeometry x="630" y="540" width="90" height="90" as="geometry" />
        </mxCell>
        <mxCell id="761dnnyQ54j-Cl0NHfQN-10424" value="4" style="rounded=0;whiteSpace=wrap;html=1;" parent="kQX5rtk-PWgS1Z2sBOy7-2" vertex="1">
          <mxGeometry x="720" y="590" width="40" height="40" as="geometry" />
        </mxCell>
        <mxCell id="761dnnyQ54j-Cl0NHfQN-10425" value="1" style="rounded=0;whiteSpace=wrap;html=1;" parent="kQX5rtk-PWgS1Z2sBOy7-2" vertex="1">
          <mxGeometry x="760" y="590" width="10" height="10" as="geometry" />
        </mxCell>
        <mxCell id="761dnnyQ54j-Cl0NHfQN-10426" value="6" style="rounded=0;whiteSpace=wrap;html=1;" parent="kQX5rtk-PWgS1Z2sBOy7-2" vertex="1">
          <mxGeometry x="770" y="540" width="60" height="60" as="geometry" />
        </mxCell>
        <mxCell id="761dnnyQ54j-Cl0NHfQN-10427" value="5" style="rounded=0;whiteSpace=wrap;html=1;" parent="kQX5rtk-PWgS1Z2sBOy7-2" vertex="1">
          <mxGeometry x="720" y="540" width="50" height="50" as="geometry" />
        </mxCell>
        <mxCell id="761dnnyQ54j-Cl0NHfQN-10428" value="54" style="rounded=0;whiteSpace=wrap;html=1;" parent="kQX5rtk-PWgS1Z2sBOy7-2" vertex="1">
          <mxGeometry x="630" width="540" height="540" as="geometry" />
        </mxCell>
      </root>
    </mxGraphModel>
  </diagram>
</mxfile>
